<?xml version="1.0" encoding="UTF-8" standalone="no"?><!DOCTYPE svg PUBLIC "-//W3C//DTD SVG 1.1//EN" "http://www.w3.org/Graphics/SVG/1.1/DTD/svg11.dtd"><svg width="100%" height="100%" viewBox="0 0 512 512" version="1.1" xmlns="http://www.w3.org/2000/svg" xmlns:xlink="http://www.w3.org/1999/xlink" xml:space="preserve" xmlns:serif="http://www.serif.com/" style="fill-rule:evenodd;clip-rule:evenodd;stroke-linecap:round;stroke-linejoin:round;stroke-miterlimit:1.5;"><path d="M511.978,124.151l0,271.507c0,12.163 -9.875,22.038 -22.038,22.038l-119.58,-0c-69.34,0 -45.668,-83.322 -115.008,-83.322l-233.335,0c-12.163,0 -22.038,-9.875 -22.038,-22.038l0,-284.005c0,-12.163 9.875,-22.038 22.038,-22.038l222.948,0c127.457,0 52.247,95.82 125.385,95.82l119.59,0c12.163,0 22.038,9.875 22.038,22.038Z" style="fill:url(#_Linear1);"/><path d="M0,512l512,0" style="fill:none;stroke:#ccc;stroke-width:39.58px;"/><defs><linearGradient id="_Linear1" x1="0" y1="0" x2="1" y2="0" gradientUnits="userSpaceOnUse" gradientTransform="matrix(22.31439,-323.927465,323.927465,22.31439,184.021051,359.850125)"><stop offset="0" style="stop-color:#53ed7c;stop-opacity:1"/><stop offset="0.52" style="stop-color:#359993;stop-opacity:1"/><stop offset="1" style="stop-color:#2a7b9b;stop-opacity:1"/></linearGradient></defs></svg>